<svg viewBox="0 0 285 68" viewBox="0 0 285 68" fill="none" xmlns="http://www.w3.org/2000/svg">
<path d="M24.3 55.4C26.9333 55.4 29.05 54.9833 30.65 54.15C32.2833 53.3166 33.1 52.0666 33.1 50.4C33.1 49.2666 32.7833 48.3166 32.15 47.55C31.5166 46.7833 30.3 46.05 28.5 45.35C26.7 44.65 24.0333 43.8166 20.5 42.85C17.2666 41.9833 14.4 40.8833 11.9 39.55C9.4333 38.2166 7.49997 36.5 6.09997 34.4C4.7333 32.3 4.04997 29.6833 4.04997 26.55C4.04997 23.3833 4.9333 20.5666 6.69997 18.1C8.46664 15.6333 11.0666 13.7 14.5 12.3C17.9333 10.8666 22.1333 10.15 27.1 10.15C31.8333 10.15 35.95 10.7666 39.45 12C42.9833 13.2 46.0333 14.7333 48.6 16.6L42.3 25.9C40.1 24.5333 37.7333 23.45 35.2 22.65C32.6666 21.8166 30.1166 21.4 27.55 21.4C24.9833 21.4 23.0666 21.75 21.8 22.45C20.5666 23.1166 19.95 24.1333 19.95 25.5C19.95 26.4 20.2666 27.1833 20.9 27.85C21.5666 28.4833 22.8 29.15 24.6 29.85C26.4 30.5166 29.0333 31.35 32.5 32.35C35.9333 33.3166 38.9166 34.4333 41.45 35.7C44.0166 36.9666 46 38.6666 47.4 40.8C48.8 42.9 49.5 45.6833 49.5 49.15C49.5 53.0166 48.35 56.2666 46.05 58.9C43.75 61.5 40.7 63.45 36.9 64.75C33.1 66.05 28.9333 66.7 24.4 66.7C19.2666 66.7 14.7333 65.9666 10.8 64.5C6.86664 63.0333 3.51664 61.1 0.74997 58.7L8.69997 49.8C10.7666 51.4 13.1 52.7333 15.7 53.8C18.3333 54.8666 21.2 55.4 24.3 55.4ZM91.1109 54.25C93.2776 54.25 95.3109 53.8333 97.2109 53C99.1442 52.1333 101.061 51.0333 102.961 49.7L110.011 59.7C107.678 61.7 104.828 63.3666 101.461 64.7C98.1276 66.0333 94.3942 66.7 90.2609 66.7C84.5609 66.7 79.6609 65.5333 75.5609 63.2C71.4609 60.8333 68.3109 57.5666 66.1109 53.4C63.9109 49.2 62.8109 44.3333 62.8109 38.8C62.8109 33.2666 63.9276 28.35 66.1609 24.05C68.4276 19.7166 71.6276 16.3166 75.7609 13.85C79.9276 11.3833 84.8609 10.15 90.5609 10.15C94.5942 10.15 98.1776 10.7166 101.311 11.85C104.478 12.95 107.378 14.6 110.011 16.8L103.161 26.3C101.361 25.0333 99.4609 24.05 97.4609 23.35C95.4609 22.65 93.3776 22.3 91.2109 22.3C87.6442 22.3 84.7609 23.5666 82.5609 26.1C80.3942 28.6 79.3109 32.8333 79.3109 38.8C79.3109 42.7 79.8276 45.7833 80.8609 48.05C81.8942 50.2833 83.2942 51.8833 85.0609 52.85C86.8609 53.7833 88.8776 54.25 91.1109 54.25ZM123.422 65V54.4H130.422V22.4H123.422V11.9H142.472L145.372 23.85C147.272 19.2833 149.689 15.8833 152.622 13.65C155.589 11.4166 159.205 10.3 163.472 10.3C165.272 10.3 166.872 10.45 168.272 10.75C169.672 11.0166 170.989 11.4 172.222 11.9L167.422 24.95C166.455 24.6833 165.489 24.4833 164.522 24.35C163.555 24.2166 162.489 24.15 161.322 24.15C157.855 24.15 154.805 25.5666 152.172 28.4C149.572 31.2333 147.589 34.8333 146.222 39.2V54.4H156.722V65H123.422ZM159.372 34.1V18.6L161.722 11.9H172.222L169.272 34.1H159.372Z" fill="#FAFAFA"/>
<path d="M236.883 40.15H213.033V27.25H236.883V40.15ZM195.783 0.0999646L226.033 33.7L195.783 67.3L185.433 58.4L208.133 33.7L185.433 8.99997L195.783 0.0999646ZM284.994 40.15H234.844V27.25H284.994V40.15Z" fill="#FF6467"/>
</svg>
